<?xml version="1.0" standalone="no"?>
<!DOCTYPE svg PUBLIC "-//W3C//DTD SVG 1.1//EN" "http://www.w3.org/Graphics/SVG/1.1/DTD/svg11.dtd" >
<svg xmlns="http://www.w3.org/2000/svg">
<metadata>Generated by IcoMoon</metadata>
<defs>
<font id="vndm" horiz-adv-x="1024">
<font-face units-per-em="1024" ascent="960" descent="-64" />
<missing-glyph horiz-adv-x="1024" />
<glyph unicode="&#x20;" horiz-adv-x="512" d="" />
<glyph unicode="&#xe900;" glyph-name="add" d="M528.144 464.2v210.272h-32.352v-210.272h-210.304v-32.354h210.304v-210.318h32.352v210.318h210.368v32.354z" />
<glyph unicode="&#xe901;" glyph-name="api" d="M512.118 701.604c62.26 0 120.964-22.558 167.286-63.412l-65.846-65.876c-23.95 13.84-55.042 10.742-75.562-9.764l-5.876-5.908-3.19 3.192c-5.278 5.244-13.872 5.278-19.18-0.032-5.306-5.308-5.306-13.902 0-19.18l14.154-14.188-29.51-29.446c-6.414-6.446-7.266-15.926-2.020-21.204 5.372-5.34 14.85-4.484 21.294 1.992l29.478 29.448 25.166-25.182c0-0.032-0.062-0.032-0.062-0.062l-30.632-30.618c-6.446-6.478-7.362-15.926-2.084-21.202 5.306-5.308 14.834-4.456 21.216 1.99l30.646 30.618c0.066 0.032 0.066 0.062 0.066 0.094l17.25-17.252c5.308-5.306 13.902-5.306 19.21-0.032 5.308 5.308 5.308 13.902 0 19.242l-3.16 3.126 5.942 5.91c20.472 20.506 23.57 51.596 9.73 75.61l65.846 65.812c0.19-0.218 0.378-0.442 0.57-0.662l22.874 22.876c-3.728 4.266-7.33 8.626-11.436 12.702-53.966 53.998-125.816 83.762-202.168 83.762-76.368 0-148.152-29.732-202.182-83.762-53.776-53.776-83.444-125.214-83.698-201.234h32.354c0.252 67.394 26.572 130.682 74.218 178.36 47.898 47.898 111.596 74.282 179.306 74.282zM765.406 445.014c-0.696-63.934-25.276-127.63-73.934-176.352-47.9-47.9-111.596-74.252-179.324-74.252-62.304 0-120.98 22.56-167.332 63.382l76.274 76.272c24.012-13.838 55.072-10.742 75.578 9.794l5.94 5.876 3.126-3.096c5.34-5.308 13.936-5.372 19.242-0.064 5.278 5.308 5.278 13.902-0.062 19.21l-95.008 95.024c-5.246 5.278-13.84 5.278-19.18 0-5.308-5.306-5.246-13.934 0-19.178l3.162-3.192-5.876-5.908c-20.538-20.49-23.634-51.58-9.794-75.53l-76.274-76.336c-0.316 0.378-0.696 0.758-1.012 1.136l-22.876-22.876c3.916-4.424 7.71-8.91 11.88-13.080 54.030-54.030 125.846-83.792 202.212-83.792 76.384 0 148.17 29.7 202.2 83.728 54.976 54.976 82.654 127.016 83.414 199.228h-32.356z" />
<glyph unicode="&#xe902;" glyph-name="back" d="M658.572 695.378l-22.874 22.878-270.272-270.24 270.272-270.288 22.874 22.876-247.396 247.412z" />
<glyph unicode="&#xe903;" glyph-name="back2" d="M556.834 695.378l-22.876 22.878-270.27-270.24 270.27-270.288 22.876 22.876-247.396 247.412zM760.312 695.378l-22.876 22.878-270.272-270.24 270.272-270.288 22.876 22.876-247.396 247.412z" />
<glyph unicode="&#xe904;" glyph-name="buy" d="M402.078 623.516v-32.324l230.27 0.030-295.928-295.926 22.876-22.874 295.928 295.926v-230.238h32.354v285.468z" />
<glyph unicode="&#xe905;" glyph-name="buysell" d="M846.918 525.364l-22.75 23-301.488-298.282 49.102-49.1h-192.864v192.8l50.238-50.174 165.216 163.492 83.066-83.034v303.32h-303.388l81.392-81.328-278.36-275.468 22.75-23.002 301.488 298.346-49.132 49.098h192.894v-192.86l-50.586 50.552-165.214-163.494-82.72 82.704v-303.306h303.388l-81.392 81.33z" />
<glyph unicode="&#xe906;" glyph-name="calendar" d="M835.262 169.194h-646.524v519.396h646.524v-519.396zM226.768 207.224h570.462v443.334h-570.462v-443.334zM326.748 495.464h66.256v-66.332h-66.256v66.332zM478.872 495.464h66.332v-66.332h-66.332v66.332zM343.87 726.806h32.014v-114.428h-32.014v114.428zM648.154 726.806h32.014v-114.428h-32.014v114.428zM630.994 495.464h66.332v-66.332h-66.332v66.332zM326.748 374.388h66.256v-66.368h-66.256v66.368zM478.872 374.388h66.332v-66.368h-66.332v66.368zM630.994 374.388h66.332v-66.368h-66.332v66.368z" />
<glyph unicode="&#xe907;" glyph-name="cancel" d="M534.852 448.016l150.284 150.332-22.874 22.844-150.286-150.302-150.302 150.302-22.876-22.844 150.334-150.332-150.334-150.35 22.876-22.874 150.302 150.348 150.348-150.348 22.878 22.874z" />
<glyph unicode="&#xe908;" glyph-name="confirm" d="M408.902 465.992l-22.116-23.602 92.828-87.028 157.79 151.358-22.37 23.35-135.672-130.16zM512.032 757.844l-268.376-154.916v-309.876l268.376-154.882 268.312 154.882v309.878l-268.312 154.914zM747.99 311.758l-235.958-136.242-236.022 136.242v272.5l236.022 136.242 235.958-136.242v-272.5z" />
<glyph unicode="&#xe909;" glyph-name="copied" d="M452.164 388.102l-55.64 52.244-22.148-23.602 78.042-73.194 131.17 125.864-22.37 23.35zM284.77 205.352h388.298v419.134h-388.298v-419.134zM317.126 592.164h323.59v-354.458h-323.59v354.458zM367.11 690.648v-32.356h339.766v-370.602h32.354v402.958z" />
<glyph unicode="&#xe90a;" glyph-name="copy" d="M284.77 205.344h388.298v419.134h-388.298v-419.134zM317.126 592.156h323.59v-354.458h-323.59v354.458zM367.11 690.64v-32.354h339.766v-370.604h32.354v402.958z" />
<glyph unicode="&#xe90b;" glyph-name="chart" d="M204.634 174.822h159.81v352.594h-159.81v-352.594zM236.988 495.062h95.106v-287.886h-95.106v287.886zM432.062 174.822h159.812v546.374h-159.812v-546.374zM464.416 688.84h95.104v-481.664h-95.104v481.664zM659.522 431.87v-257.046h159.844v257.046h-159.844zM787.010 207.176h-95.134v192.356h95.134v-192.356z" />
<glyph unicode="&#xe90c;" glyph-name="chat" d="M236.988 730.356v-422.388h82.148v-142.308l134.094 142.308h333.78v422.388h-550.022zM754.656 340.32h-315.39l-87.774-93.144v93.144h-82.148v357.684h485.312v-357.684zM405.142 489.944c16.65 0 30.142 13.49 30.142 30.112 0 16.65-13.492 30.142-30.142 30.142-16.62 0-30.112-13.492-30.112-30.142 0-16.622 13.494-30.112 30.112-30.112zM520.214 489.944c16.62 0 30.142 13.49 30.142 30.112 0 16.65-13.524 30.142-30.142 30.142-16.684 0-30.142-13.492-30.142-30.142 0-16.622 13.458-30.112 30.142-30.112zM635.222 489.944c16.622 0 30.142 13.49 30.142 30.112 0 16.65-13.522 30.142-30.142 30.142-16.65 0-30.14-13.492-30.14-30.142 0-16.622 13.49-30.112 30.14-30.112z" />
<glyph unicode="&#xe90d;" glyph-name="chat2" d="M706.472 740.902h-188.502c-96.682 0-175.61-76.778-179.464-172.514h-37.092c-90.43 0-163.73-73.272-163.73-163.684 0-75.514 51.184-138.894 120.696-157.79v-91.818l96.116 85.942h135.358c81.264 0 148.122 59.336 161.012 136.874l114.756-102.688v116.146c71.66 24.976 120.698 93.066 120.698 169.718-0.004 99.15-80.636 179.814-179.848 179.814zM495.854 348.338h-200.444v16.178h200.444v-16.178zM495.854 399.144h-200.444v16.178h200.444v-16.178zM495.854 449.902h-200.444v16.178h200.442v-16.178zM745.208 418.876l-11.944-3.24v-68.056l-73.744 65.972h-6.888c-4.676 86.208-75.386 154.836-162.782 154.836h-118.614c3.918 77.852 67.934 140.158 146.732 140.158h188.502c81.328 0 147.49-66.16 147.49-147.458 0.002-66.288-44.738-124.738-108.752-142.212z" />
<glyph unicode="&#xe90e;" glyph-name="check" d="M710.998 594.668l-259.102-248.722-139.212 130.554-22.118-23.57 161.582-151.598 281.284 270.020z" />
<glyph unicode="&#xe90f;" glyph-name="dark" d="M710.62 320.922c-11.754-4.74-24.076-8.342-36.46-10.68-11.754-2.212-23.76-3.318-35.578-3.318-92.070 0-171.266 65.814-188.294 156.494-16.368 87.332 28.848 173.714 110 210.114l51.312 23.034-55.734 7.74c-27.79 3.886-56.036 3.288-83.336-1.832-140.286-26.318-233.050-161.834-206.762-302.12 22.938-122.372 129.826-211.188 254.156-211.188 15.988 0 32.148 1.516 47.948 4.486 65.278 12.228 122.718 48.72 161.896 102.75l32.924 45.53-52.072-21.010zM561.93 225.438c-13.902-2.59-28.010-3.918-42.008-3.918-108.754 0-202.278 77.726-222.372 184.804-23.004 122.75 58.168 241.33 180.918 264.332 6.604 1.232 13.27 2.18 20 2.812-63.508-50.71-95.546-133.020-79.968-216.022 19.874-105.972 112.45-182.876 220.080-182.876 9.732 0 19.59 0.662 29.322 1.926-30.018-25.94-66.352-43.632-105.972-51.058z" />
<glyph unicode="&#xe910;" glyph-name="down-19" d="M759.396 594.574l-247.458-247.396-247.334 247.396-22.878-22.874 270.212-270.274 270.334 270.274z" />
<glyph unicode="&#xe911;" glyph-name="down-25" d="M675.596 435.662l-147.474-147.474v381.536h-32.354v-381.536l-147.364 147.474-22.876-22.86 186.418-186.542 186.524 186.542z" />
<glyph unicode="&#xe912;" glyph-name="expand" d="M495.822 534.374v-162.83l-70.27 70.318-22.874-22.876 109.29-109.306 109.322 109.306-22.876 22.876-70.238-70.252v162.764zM269.344 619.304h485.312v-32.322h-485.312v32.322zM269.344 688.058h485.312v-32.356h-485.312v32.356zM269.344 240.296h485.312v-32.356h-485.312v32.356z" />
<glyph unicode="&#xe913;" glyph-name="history" d="M529.188 710.452c-142.434 0-258.454-114.092-262.12-255.642l-34.694-0.472 14.536-19.464 24.012-31.99 12.956-17.314 18.388 26.036 16.492 23.27 14.724 20.854-33.998-0.474c3.856 123.51 105.278 222.848 229.704 222.848 126.826 0 230.082-103.224 230.082-230.114 0-126.874-103.256-230.066-230.082-230.066-81.202 0-152.48 42.338-193.492 105.972l-19.716-28.31c47.646-66.476 125.374-110.016 213.208-110.016 144.708 0 262.436 117.726 262.436 262.42 0 144.704-117.728 262.462-262.436 262.462zM513.012 582.804v-143.066l119.872-87.030 19.022 26.224-106.54 77.298v126.574z" />
<glyph unicode="&#xe914;" glyph-name="home" d="M727.546 161.994h-126.162v187.112h-174.158v-187.112h-130.934v281.724h-32.352v-314.080h195.642v187.112h109.448v-187.112h190.87v314.080h-32.354zM516.834 766.374l-339.53-319.212 22.15-23.57 317.062 298.076 307.684-297.918 22.496 23.254z" />
<glyph unicode="&#xe915;" glyph-name="lessequal" d="M676.226 628.554l-14.596 28.88-313.858-158.392 313.858-158.342 14.596 28.878-256.668 129.464zM365.212 270.936h303.684v-32.354h-303.684v32.354z" />
<glyph unicode="&#xe916;" glyph-name="light" d="M512 641.542c-106.73 0-193.622-86.826-193.622-193.556 0-106.714 86.89-193.542 193.622-193.542s193.556 86.826 193.556 193.542c0 106.728-86.826 193.556-193.556 193.556zM512 286.796c-88.91 0-161.266 72.292-161.266 161.188 0 88.91 72.356 161.204 161.266 161.204 88.848 0 161.202-72.292 161.202-161.204 0-88.896-72.354-161.188-161.202-161.188zM495.822 739.172h32.354v-56.808h-32.354v56.808zM495.822 213.622h32.354v-56.808h-32.354v56.808zM746.378 464.192h56.808v-32.354h-56.808v32.354zM220.812 464.192h56.808v-32.354h-56.808v32.354zM666.314 270.874l40.128-40.19 22.874 22.874-40.126 40.19zM357.684 625.174l-40.126 40.19-22.874-22.876 40.124-40.158zM666.314 625.238l22.876-22.844 40.126 40.126-22.874 22.874zM317.556 230.74l-22.875 22.875 40.125 40.125 22.875-22.875-40.125-40.125z" />
<glyph unicode="&#xe917;" glyph-name="link" d="M611.47 407.146c-2.656-15.42-9.73-30.206-21.612-42.054l-120.68-120.696c-29.45-29.48-81.012-29.48-110.524 0-30.458 30.458-30.458 80.062 0 110.584l120.634 120.65c14.788 14.754 34.44 22.906 55.292 22.906 15.026 0 29.306-4.36 41.692-12.196l23.002 23.034c-42.592 30.112-105.134 26.762-142.862-10.87l-120.632-120.65c-43.098-43.128-43.098-113.272 0-156.37 20.916-20.822 48.656-32.322 78.168-32.322s57.252 11.5 78.106 32.354l120.678 120.698c26.29 26.256 36.336 62.592 30.524 96.762l-31.786-31.83zM718.898 613.294c-0.252 1.388-0.19 2.844-0.442 4.232-1.138 6.004-3.034 11.88-5.182 17.63-0.378 0.95-0.506 1.958-0.884 2.906-2.21 5.466-5.182 10.648-8.278 15.736-0.696 1.138-1.138 2.402-1.896 3.54-4.044 6.098-8.72 11.848-14.030 17.22-43.16 43.066-113.238 43.002-156.258-0.032l-120.696-120.696c-20.852-20.854-32.352-48.626-32.352-78.168 0-6.32 0.758-12.48 1.832-18.61l31.786 31.848c2.716 15.83 9.984 30.458 21.612 42.054l120.682 120.696c3.726 3.76 7.836 7.046 12.132 9.92 0.694 0.474 1.454 0.726 2.148 1.168 3.728 2.276 7.52 4.392 11.5 6.004 0.19 0.062 0.316 0.094 0.506 0.158 18.262 7.268 38.674 7.298 56.998 0.286 0.444-0.19 0.95-0.252 1.39-0.412 3.918-1.612 7.646-3.666 11.248-5.908 0.76-0.474 1.642-0.758 2.402-1.296 4.36-2.844 8.404-6.162 12.196-9.92 30.458-30.458 30.458-80.094 0-110.554l-120.634-120.696c-25.324-25.356-66.904-28.768-96.858-10.568l-23.252-23.288c18.768-13.712 41.136-21.39 64.834-21.39 29.51 0 57.238 11.502 78.154 32.356l42.338 42.418 78.294 78.292c5.372 5.34 10.048 11.124 14.030 17.22 0.696 1.042 1.136 2.212 1.768 3.256 3.162 5.18 6.13 10.458 8.406 15.986 0.316 0.854 0.444 1.77 0.758 2.624 2.212 5.876 4.108 11.816 5.308 17.914 0.252 1.296 0.19 2.716 0.378 4.042 0.884 5.626 1.708 11.282 1.708 17.094-0.002 5.754-0.826 11.346-1.646 16.938z" />
<glyph unicode="&#xe918;" glyph-name="list" d="M639.71 205.090h-318.424v427.288h187.364l32.164 32.354h-251.88v-491.996h383.13v351.268l-32.354-31.692zM389.282 382.090h182.498v-32.354h-182.498v32.354zM389.282 300.954h182.498v-32.356h-182.498v32.356zM639.584 723.248l-181.804-181.71-6.508-30.238-19.716-91.468 121.706 26.192 181.804 181.802-95.482 95.422zM537.15 475.662l-63.38-13.65 4.106 19.052 9.542 44.33 2.402 2.434 49.73-49.766-2.4-2.4zM639.71 578.222l-88.722-88.722-49.73 49.734 138.328 138.262 12.764-12.764 19.716-19.654 17.252-17.25-49.608-49.606z" />
<glyph unicode="&#xe919;" glyph-name="list-order" d="M315.938 594.73h386.91v-32.354h-386.91v32.354zM315.938 461.27h386.91v-32.354h-386.91v32.354zM315.938 333.18h386.91v-32.354h-386.91v32.354zM221.594 195.896l-117.916 119.022-22.97-22.782 173.24-174.85v346.672h-32.354zM770.020 778.714v-346.638h32.354v267.996l117.98-119.022 22.938 22.782z" />
<glyph unicode="&#xe91a;" glyph-name="logout" d="M611.014 221.52h-323.022v452.976h323.022v-56.304h32.354v88.658h-387.73v-517.684h387.73v88.658h-32.354zM665.042 551.272l-21.674-21.708-1.202-1.17 1.202-1.168 63.066-63.034h-240.43v-32.354h240.43l-64.268-64.218 1.202-1.2 21.674-21.676 103.32 103.272z" />
<glyph unicode="&#xe91b;" glyph-name="more-horizontal" d="M351.334 490.086c-23.254 0-42.086-18.894-42.086-42.086 0-23.254 18.832-42.086 42.086-42.086 23.256 0 42.086 18.832 42.086 42.086 0 23.192-18.83 42.086-42.086 42.086zM512.032 490.086c-23.254 0-42.086-18.894-42.086-42.086 0-23.254 18.832-42.086 42.086-42.086 23.192 0 42.086 18.832 42.086 42.086 0 23.192-18.896 42.086-42.086 42.086zM672.664 490.086c-23.254 0-42.086-18.894-42.086-42.086 0-23.254 18.832-42.086 42.086-42.086 23.256 0 42.086 18.832 42.086 42.086 0 23.192-18.83 42.086-42.086 42.086z" />
<glyph unicode="&#xe91c;" glyph-name="more-vertical" d="M512 566.594c23.192 0 42.084 18.894 42.084 42.086 0 23.256-18.894 42.054-42.084 42.054-23.254 0-42.086-18.798-42.086-42.054 0-23.192 18.832-42.086 42.086-42.086zM512 490.132c-23.254 0-42.086-18.832-42.086-42.086s18.832-42.070 42.086-42.070c23.192 0 42.084 18.816 42.084 42.070s-18.892 42.086-42.084 42.086zM512 329.452c-23.254 0-42.086-18.768-42.086-42.086 0-23.192 18.832-42.084 42.086-42.084 23.192 0 42.084 18.892 42.084 42.084 0 23.318-18.892 42.086-42.084 42.086z" />
<glyph unicode="&#xe91d;" glyph-name="next" d="M388.332 718.256l-22.874-22.878 247.334-247.362-247.334-247.412 22.874-22.876 270.21 270.288z" />
<glyph unicode="&#xe91e;" glyph-name="next2" d="M490.072 718.256l-22.876-22.878 247.334-247.362-247.334-247.412 22.876-22.876 270.21 270.288zM286.594 718.256l-22.876-22.878 247.332-247.362-247.332-247.412 22.876-22.876 270.208 270.288z" />
<glyph unicode="&#xe91f;" glyph-name="notication" d="M715 379.5c-31.66 27.55-33.682 65.482-36.084 109.4-1.706 32.766-3.538 66.668-18.072 99.4-25.592 57.472-86.636 80.254-121.596 88.816 0.948 2.812 1.768 5.656 1.768 8.754 0 16.048-13.018 29.036-29.004 29.036-16.050 0-29.068-12.986-29.068-29.036 0-3.098 0.884-5.942 1.77-8.754-34.946-8.562-95.988-31.344-121.518-88.816-14.598-32.732-16.368-66.634-18.136-99.4-2.338-43.918-4.36-81.85-36.208-109.528-21.232-18.958-30.268-45.308-22.56-65.53 3.982-10.428 15.926-27.868 50.934-27.868h349.53c35.072 0 46.954 17.44 50.934 27.868 7.768 20.222-1.332 46.574-22.69 65.658zM707.48 325.408c-1.708-4.424-9.416-7.078-20.728-7.078h-349.53c-11.248 0-19.020 2.654-20.664 7.078-2.4 6.256 2.592 19.78 13.648 29.7 42.024 36.526 44.678 85.104 47.142 132.056 1.642 29.858 3.288 60.726 15.42 87.992 26.16 58.864 106.414 72.578 119.242 74.41 12.828-1.8 92.97-15.292 119.258-74.41 12.132-27.266 13.778-58.134 15.356-87.992 2.53-46.954 5.12-95.532 47.016-131.93 11.248-10.046 16.24-23.57 13.84-29.826zM512.012 213.432c-22.688 0-41.202 18.452-41.202 41.202h-32.354c0-40.57 32.984-73.554 73.554-73.554 40.522 0 73.508 32.984 73.508 73.554h-32.354c0.002-22.752-18.466-41.202-41.152-41.202z" />
<glyph unicode="&#xe920;" glyph-name="password" d="M657.54 531.65h-234.14v54.724c0 48.594 39.43 88.090 89.352 88.090 48.422 0 87.852-39.496 87.852-88.090h32.356c0 66.416-53.902 120.444-121.628 120.444-66.32 0-120.286-54.028-120.286-120.444v-54.724h-108.374v-342.484h458.664v342.484h-83.796zM708.976 221.52h-393.952v277.776h393.954v-277.776zM542.136 374.128c0 3.474-2.942 6.446-6.45 6.446-1.766 0-3.156-0.632-4.926-1.958l-14.628-10.742 1.926 17.566c0.602 4.108-2.118 7.206-6.036 7.206s-6.666-3.288-6.098-7.394l2.024-17.376-14.694 10.742c-1.77 1.326-2.94 1.958-4.676 1.958-3.506 0-6.634-2.97-6.634-6.446 0-2.97 2.118-5.12 4.454-6.066l17.222-7.646-17.222-7.394c-2.148-1.010-4.454-3.158-4.454-6.128 0-3.54 2.906-6.572 6.414-6.572 1.738 0 3.126 0.758 4.896 1.896l14.694 10.804-2.024-17.628c-0.568-4.108 2.18-7.206 6.098-7.206s6.636 3.288 6.036 7.394l-1.926 17.44 14.628-10.804c1.77-1.138 3.16-1.896 4.676-1.896 3.57 0 6.7 2.908 6.7 6.382 0 3.16-2.184 5.308-4.52 6.318l-17.218 7.394 17.218 7.646c2.338 0.946 4.52 2.904 4.52 6.064zM447.41 374.128c0 3.474-2.906 6.446-6.446 6.446-1.738 0-3.098-0.632-4.868-1.958l-14.66-10.742 1.896 17.566c0.63 4.108-2.052 7.206-6.002 7.206-3.918 0-6.668-3.288-6.098-7.394l2.020-17.376-14.692 10.742c-1.77 1.326-2.938 1.958-4.676 1.958-3.508 0-6.634-2.97-6.634-6.446 0-2.97 2.118-5.12 4.456-6.066l17.25-7.646-17.25-7.394c-2.148-1.010-4.456-3.158-4.456-6.128 0-3.54 2.94-6.572 6.414-6.572 1.736 0 3.126 0.758 4.896 1.896l14.692 10.804-2.020-17.628c-0.57-4.108 2.18-7.206 6.098-7.206 3.95 0 6.632 3.288 6.002 7.394l-1.896 17.44 14.66-10.804c1.77-1.138 3.128-1.896 4.678-1.896 3.54 0 6.634 2.908 6.634 6.382 0 3.16-2.118 5.308-4.486 6.318l-17.22 7.394 17.22 7.646c2.37 0.946 4.488 2.904 4.488 6.064zM636.812 374.128c0 3.474-2.906 6.446-6.382 6.446-1.77 0-3.16-0.632-4.93-1.958l-14.66-10.742 1.96 17.566c0.566 4.108-2.214 7.206-6.066 7.206-3.918 0-6.7-3.288-6.066-7.394l1.958-17.376-14.66 10.742c-1.77 1.326-2.968 1.958-4.738 1.958-3.476 0-6.574-2.97-6.574-6.446 0-2.97 2.148-5.12 4.488-6.066l17.188-7.646-17.188-7.394c-2.148-1.010-4.488-3.158-4.488-6.128 0-3.54 2.906-6.572 6.446-6.572 1.708 0 3.098 0.758 4.868 1.896l14.66 10.804-1.958-17.628c-0.632-4.108 2.148-7.206 6.066-7.206 3.852 0 6.632 3.288 6.066 7.394l-1.96 17.44 14.66-10.804c1.77-1.138 3.16-1.896 4.676-1.896 3.476 0 6.636 2.908 6.636 6.382 0 3.16-2.148 5.308-4.488 6.318l-17.188 7.394 17.188 7.646c2.338 0.946 4.486 2.904 4.486 6.064z" />
<glyph unicode="&#xe921;" glyph-name="qrcode" d="M276.358 469.66h213.966v213.964h-213.966v-213.964zM308.71 651.274h149.26v-149.262h-149.26v149.262zM354.398 605.648h57.948v-57.98h-57.948v57.98zM533.612 683.624v-213.964h214.032v213.964h-214.032zM715.288 502.012h-149.322v149.262h149.322v-149.262zM611.652 605.648h57.948v-57.98h-57.948v57.98zM276.358 212.358h213.966v214.016h-213.966v-214.016zM308.71 394.034h149.26v-149.322h-149.26v149.322zM354.398 348.346h57.948v-57.948h-57.948v57.948zM698.922 244.71v-32.352h48.72v32.352h-16.178zM640.596 244.71h45.244v-32.354h-45.244v32.354zM715.224 410.21h0.062v-14.030h-61.926v30.192h-119.748v-214.016h32.354v153.998h43.918v-71.090h137.76v131.108h-32.418v-16.162zM717.374 394.034h28.122v-2.084h-0.254v1.706h-27.868v0.378z" />
<glyph unicode="&#xe922;" glyph-name="referral" d="M764.476 385.25c-7.014 6.952-15.544 11.816-24.582 15.61 0.126 2.148 0.378 4.232 0.378 6.38 0 89.212-51.406 168.486-131.438 206.118 0.126 2.084 0.63 4.044 0.63 6.162 0 53.806-43.792 97.598-97.63 97.598-53.84 0-97.632-43.792-97.632-97.598 0-2.118 0.474-4.078 0.632-6.162-80.032-37.662-131.406-116.936-131.406-206.118 0-2.148 0.22-4.296 0.348-6.508-8.91-3.792-17.378-8.658-24.266-15.544-14.504-14.47-22.496-33.744-22.496-54.284 0-20.538 7.992-39.81 22.496-54.282 14.66-14.66 34.282-22.306 54.154-22.306 8.658 0 17.19 2.024 25.53 4.93 14.156-16.556 29.732-31.282 47.332-42.844l8.91 13.458-8.91-13.524c37.376-24.518 80.696-37.472 125.308-37.472 44.582 0 87.9 12.956 125.308 37.472l-8.876 13.524 8.91-13.458c17.66 11.626 33.238 26.414 47.362 42.968 8.466-3.096 17.126-5.182 25.908-5.182 19.842 0 39.432 7.71 54.092 22.372 29.922 29.89 29.954 78.612-0.062 108.69zM447.822 607.006c-0.822 4.076-1.264 8.248-1.264 12.514 0 35.986 29.258 65.244 65.278 65.244 35.956 0 65.278-29.258 65.278-65.244 0-4.298-0.506-8.5-1.294-12.576-5.972-30.522-32.892-52.67-63.982-52.67-31.154 0-58.042 22.148-64.014 52.67l-15.862-3.096 15.86 3.158zM345.262 299.436c-2.402-2.4-5.464-4.614-9.574-7.014-17.376-9.794-39.304-6.952-53.3 7.076-8.406 8.406-13.020 19.528-13.020 31.406 0 11.88 4.614 23.002 13.020 31.408 5.908 5.876 13.458 9.984 21.8 11.816 14.976 3.412 30.332-1.074 41.074-11.816 8.404-8.406 13.018-19.528 13.018-31.408 0-11.878-4.614-23-13.018-31.468zM655.914 276.56c0.126-0.126 0.314-0.19 0.442-0.316-11.248-12.512-23.38-23.886-36.998-32.86-64.172-42.086-150.872-42.086-215.074 0-13.524 8.91-25.56 20.22-36.778 32.67 0.19 0.19 0.444 0.378 0.63 0.568 14.534 14.47 22.528 33.808 22.496 54.346 0 20.474-8.024 39.748-22.496 54.218-14.090 14.092-32.798 21.8-52.322 22.242 0.064 74.11 41.518 140.238 106.572 173.668 15.136-35.166 49.89-59.18 89.45-59.18 39.494 0 74.282 24.014 89.416 59.18 65.086-33.396 106.574-99.496 106.636-173.604-19.37-0.568-38.010-8.342-51.974-22.372-14.536-14.47-22.53-33.806-22.498-54.282 0-20.534 7.962-39.806 22.498-54.278zM741.664 299.436c-14.092-14.092-36.082-16.936-53.458-6.952l-8.090-13.964 8.026 14.028c-3.854 2.212-6.92 4.424-9.384 6.888-8.372 8.404-12.986 19.528-12.986 31.406-0.032 11.88 4.614 23.002 13.018 31.406 10.616 10.68 25.75 15.23 40.758 12.006 8.468-1.832 16.116-5.94 22.118-11.942 17.312-17.316 17.312-45.562-0.002-62.876z" />
<glyph unicode="&#xe923;" glyph-name="search" d="M675.92 300.068c43.096 45.308 67.93 105.466 67.93 169.496 0 135.924-110.584 246.478-246.51 246.478-135.864 0-246.45-110.554-246.45-246.478 0-83.178 41.58-160.208 111.282-205.958v0c40.254-26.542 87.016-40.506 135.168-40.506 48.214 0 94.914 13.964 135.23 40.506v0c6.824 4.486 13.142 9.478 19.462 14.598l98.2-98.264 22.876 22.876-97.188 97.252zM623.66 277.128l-8.848 13.458c-70.016-46.002-164.868-46.002-234.882 0l-8.91-13.458 8.91 13.524c-60.54 39.748-96.684 106.668-96.684 178.912 0 118.072 96.050 214.126 214.094 214.126 118.106 0 214.156-96.052 214.156-214.126 0-72.244-36.146-139.164-96.684-178.912l8.848-13.524z" />
<glyph unicode="&#xe924;" glyph-name="security" d="M747.586 612.346c-71.912 12.828-226.652 91.534-228.202 92.324l-7.362 3.758-7.364-3.758c-1.546-0.792-156.304-79.496-228.184-92.324l-14.094-2.528 0.792-14.282c7.772-144.93 56.24-332.942 242.972-405.676l5.876-2.276 5.876 2.276c186.78 72.734 235.248 260.746 242.958 405.676l0.758 14.282-14.026 2.528zM512.024 222.342c-160.192 65.846-206.258 229.464-215.674 361.188 70.458 17.19 185.28 73.43 215.674 88.628 30.394-15.2 145.2-71.44 215.72-88.66-9.416-131.692-55.482-295.31-215.72-361.156z" />
<glyph unicode="&#xe925;" glyph-name="sell" d="M687.578 600.704l-22.874 22.874-295.928-295.928 0.062 230.272h-32.354l-0.064-285.5 285.502 0.032v32.352l-230.272-0.030z" />
<glyph unicode="&#xe926;" glyph-name="send" d="M220.338 499.832l214.82-128.612 128.626-214.914 239.876 583.372-583.322-239.846zM292.312 494.46l432.548 177.822-273.24-273.194-159.308 95.372zM558.414 228.282l-95.356 159.372 273.24 273.224-177.884-432.596z" />
<glyph unicode="&#xe927;" glyph-name="setting" d="M511.904 567.922c-21.106 0-41.896-5.624-60.158-16.24-27.646-16.114-47.362-42.024-55.544-72.986-8.152-30.932-3.792-63.176 12.322-90.822 20.348-34.976 56.684-57.126 97.062-59.306 2.21-0.126 4.422-0.19 6.604-0.19 21.136 0 41.928 5.626 60.126 16.178 20.158 11.754 36.398 29.068 46.888 50.142 18.072 36.224 16.712 78.722-3.634 113.7-21.39 36.712-61.136 59.524-103.666 59.524zM590.23 409.136c-7.678-15.418-19.494-28.056-34.218-36.62-13.208-7.678-28.374-11.786-43.822-11.786l-4.834 0.158c-29.51 1.578-56.020 17.756-70.9 43.254-11.722 20.174-14.914 43.712-8.974 66.336 5.972 22.56 20.348 41.486 40.538 53.208 13.366 7.772 28.532 11.88 43.886 11.88 31.092 0 60.096-16.652 75.706-43.476 14.846-25.496 15.826-56.492 2.618-82.954zM766.884 411.096c-19.906 1.8-35.010 18.152-35.072 38.058-0.062 19.746 14.818 36.238 34.628 38.324l18.010 1.896-3.918 17.63c-12.542 56.998-41.832 107.426-84.74 145.814l-13.334 11.944-10.552-14.47c-11.216-15.514-33.682-20.6-50.364-11.028-17.062 9.764-23.918 30.838-15.958 49.006l7.206 16.43-17.094 5.434c-54.282 17.378-113.62 17.062-168.596-0.758l-17.252-5.56 7.522-16.494c8.214-18.134 1.546-39.336-15.514-49.29-16.714-9.762-39.464-4.582-50.682 11.122l-10.552 14.79-13.458-12.198c-20.824-18.864-38.326-40.728-52.48-64.802-0.444-0.758-1.012-1.39-1.454-2.118-14.092-24.676-24.266-51.406-30.332-79.528l-3.856-17.914 18.262-1.614c10.868-0.946 20.064-6.446 26.478-14.216 5.402-6.604 8.91-14.788 8.942-23.952 0.094-19.966-14.946-36.446-34.976-38.404l-18.136-1.706 3.856-17.82c12.416-57.062 41.738-107.68 84.802-146.352l13.806-12.386 10.396 15.356c10.9 16.116 33.996 21.612 50.868 12.006 17.568-10.078 24.204-31.596 15.546-50.046l-7.868-16.714 17.6-5.592c26.792-8.562 54.66-12.89 82.844-12.89 29.258 0 58.294 4.676 86.256 13.838l17.284 5.688-7.678 16.492c-8.466 18.202-1.832 39.496 15.42 49.542 16.712 9.794 39.494 4.644 50.71-11.122l10.584-14.914 13.524 12.322c21.074 19.21 38.988 41.518 53.302 66.416 14.344 25.212 24.582 52.226 30.426 80.378l3.666 17.758-18.072 1.644zM722.776 327.398c-9.952-17.314-21.894-33.238-35.638-47.522-22.054 18.168-55.452 21.456-80.698 6.73-26.288-15.356-39.178-44.802-34.060-73.428-38.798-10.018-79.81-10.3-118.454-0.822 5.278 28.972-7.772 58.642-34.502 74.030-25.624 14.628-59.4 10.838-81.138-7.836-28.026 28.72-48.246 63.698-59.304 102.592 27.36 10.112 46.224 36.162 46.098 66.59-0.032 8.402-1.8 16.334-4.518 23.822-7.078 19.588-22.306 35.26-42.182 42.434 5.436 19.208 13.114 37.568 22.94 54.756 3.632 6.318 7.836 12.258 12.006 18.2 7.364 10.488 15.23 20.6 24.172 29.826 22.022-18.104 55.356-21.39 80.632-6.698 26.036 15.164 38.958 44.454 34.124 72.954 38.926 9.984 79.938 10.208 118.516 0.602-4.486-28.468 8.69-57.538 34.694-72.418 25.054-14.408 58.104-11.186 80.032 6.73 28.058-28.596 48.406-63.604 59.59-102.594-27.044-10.236-45.718-36.208-45.624-66.288 0.126-30.396 19.116-56.258 46.446-66.146-5.374-19.336-13.15-37.948-23.132-55.514z" />
<glyph unicode="&#xe928;" glyph-name="share" d="M680.944 377.668c-26.194 0-49.574-11.438-66.004-29.384l-172.262 99.702 172.292 99.716c16.43-17.884 39.81-29.322 65.972-29.322 49.574 0 89.89 40.286 89.89 89.796 0 49.574-40.316 89.89-89.89 89.89-49.542 0-89.86-40.316-89.86-89.89 0-11.692 2.434-22.844 6.542-33.144l-169.924-98.326c-12.038 35.42-45.244 61.138-84.678 61.138-49.542 0-89.858-40.316-89.858-89.86 0-49.528 40.316-89.844 89.858-89.844 39.434 0 72.64 25.718 84.678 61.124l169.892-98.342c-4.076-10.238-6.51-21.424-6.51-33.114 0-49.542 40.316-89.86 89.86-89.86 49.574 0 89.89 40.316 89.89 89.86s-40.314 89.86-89.888 89.86zM680.944 665.712c31.722 0 57.536-25.814 57.536-57.536 0-31.66-25.812-57.442-57.536-57.442-31.692 0-57.506 25.782-57.506 57.442 0 31.722 25.814 57.536 57.506 57.536zM399.138 435.788c-5.624-25.892-28.626-45.292-56.116-45.292-31.722 0-57.504 25.766-57.504 57.488s25.782 57.504 57.504 57.504c27.488 0 50.492-19.432 56.116-45.308 0.884-3.95 1.39-7.992 1.39-12.196s-0.504-8.246-1.39-12.196zM680.944 230.304c-31.692 0-57.506 25.782-57.506 57.504s25.814 57.504 57.506 57.504c31.722 0 57.536-25.782 57.536-57.504s-25.814-57.504-57.536-57.504z" />
<glyph unicode="&#xe929;" glyph-name="star-fill" d="M754.656 502.488l-156.086 40.348-86.602 135.956-86.604-135.956-156.020-40.348 102.528-124.378-9.892-160.888 149.988 59.084 149.986-59.084-9.86 160.888z" />
<glyph unicode="&#xe92a;" glyph-name="star-stroke" d="M783.29 508.9l-174.472 45.12-96.824 151.976-96.78-151.976-174.504-45.12 114.662-139.006-11.058-179.906 167.68 66.098 167.726-66.098-11.058 179.906 114.628 139.006zM511.992 290.842l-132.262-52.132 8.69 141.928-90.428 109.686 137.632 35.576 76.368 119.876 76.352-119.876 137.696-35.576-90.492-109.686 8.72-141.928-132.276 52.132z" />
<glyph unicode="&#xe92b;" glyph-name="sub" d="M285.52 464.176h452.958v-32.354h-452.958v32.354z" />
<glyph unicode="&#xe92c;" glyph-name="thanequal" d="M362.304 340.7l313.922 158.342-313.922 158.392-14.532-28.88 256.606-129.512-256.606-129.464zM355.040 270.936h303.684v-32.354h-303.684v32.354z" />
<glyph unicode="&#xe92d;" glyph-name="unlink" d="M498.004 318.392c-35.958-35.956-95.106-40.884-125.752-10.236-15.166 15.104-22.624 36.272-20.98 59.652 1.642 24.14 12.702 47.646 31.154 66.116l43.286 43.222-22.876 22.876-43.288-43.224c-23.95-23.98-38.358-54.802-40.568-86.778-2.276-32.86 8.532-62.94 30.394-84.804 19.78-19.714 46.888-30.584 76.4-30.584 34.502 0 69.13 14.914 95.104 40.884l43.222 43.222-22.876 22.876-43.22-43.222zM526.124 577.528c19.968 19.968 46.256 31.438 72.228 31.438 20.854 0 39.874-7.52 53.524-21.168 31.786-31.88 27.236-88.312-10.238-125.754l-43.222-43.254 22.876-22.86 43.224 43.238c50.046 50.048 54.66 126.984 10.236 171.472-19.78 19.778-46.888 30.68-76.398 30.68-34.44 0-69.132-14.914-95.104-40.918l-43.222-43.192 22.876-22.876 43.22 43.194zM604.102 378.742l-286.954 287-22.874-22.874 412.578-412.628 22.874 22.876z" />
<glyph unicode="&#xe92e;" glyph-name="up" d="M512.008 669.724l-186.48-186.478 22.876-22.876 147.426 147.458v-381.568h32.356v381.568l147.41-147.458 22.874 22.876z" />
<glyph unicode="&#xe92f;" glyph-name="user" d="M512.008 722.996c-151.662 0-275.012-123.352-275.012-274.98 0-92.718 46.384-178.66 124.11-229.844l8.91 13.522-8.878-13.522c44.992-29.574 97.156-45.184 150.872-45.184 53.682 0 105.846 15.61 150.838 45.184l-8.848 13.522 8.876-13.522c77.726 51.184 124.14 137.126 124.14 229.844 0.002 151.628-123.38 274.98-275.008 274.98zM385.182 241.742c-0.126 1.010-0.316 1.894-0.316 2.906 0 70.142 57.032 127.142 127.142 127.142 70.080 0 127.078-57 127.078-127.142 0-0.948-0.158-1.896-0.252-2.906-76.75-46.952-176.938-47.016-253.652 0zM454.218 461.886c0 31.848 25.94 57.758 57.79 57.758 31.848 0 57.758-25.91 57.758-57.758 0-31.85-25.91-57.742-57.758-57.742-31.85 0-57.79 25.894-57.79 57.742zM669.544 263.606c-7.14 59.274-46.29 108.5-100.16 129.418 19.844 16.554 32.734 41.090 32.734 68.864 0 49.7-40.444 90.112-90.112 90.112-49.732 0-90.144-40.412-90.144-90.112 0-27.774 12.89-52.308 32.702-68.864-53.84-20.918-93.018-70.144-100.128-129.418-53.746 45.876-85.088 112.862-85.088 184.41 0 133.808 108.816 242.626 242.658 242.626 133.778 0 242.656-108.816 242.656-242.626 0.002-71.55-31.342-138.534-85.118-184.41z" />
<glyph unicode="&#xe930;" glyph-name="voucher" d="M403.122 501.918l-31.028-31.028-31.028 31.028-22.874-22.876 31.026-31.026-31.026-31.058 22.874-22.86 31.028 31.042 31.028-31.042 22.874 22.86-31.028 31.058 31.028 31.026zM543.028 501.918l-31.028-31.028-31.090 31.028-22.874-22.876 31.090-31.026-31.090-31.058 22.874-22.86 31.090 31.042 31.028-31.042 22.874 22.86-31.026 31.058 31.026 31.026zM620.816 394.098l31.090 31.042 31.028-31.042 22.874 22.86-31.026 31.058 31.026 31.026-22.874 22.876-31.028-31.028-31.090 31.028-22.874-22.876 31.090-31.026-31.090-31.058zM548.336 656.644v-16.178c0-20.034-16.304-36.336-36.336-36.336-20.094 0-36.398 16.302-36.398 36.336v16.178h-238.614v-417.304h238.614v16.178c0 20.096 16.304 36.398 36.398 36.398 20.032 0 36.336-16.302 36.336-36.398v-16.178h238.676v417.304h-238.676zM754.656 271.696h-175.864c-7.328 30.142-34.5 52.574-66.792 52.574-32.354 0-59.528-22.432-66.792-52.574h-175.864v352.594h175.864c7.266-30.11 34.44-52.512 66.792-52.512 32.292 0 59.464 22.402 66.792 52.512h175.864v-352.594z" />
<glyph unicode="&#xe931;" glyph-name="wallet" d="M670.358 419.58c15.672 0 28.438 12.764 28.438 28.436s-12.766 28.404-28.438 28.404c-15.67 0-28.374-12.732-28.374-28.404s12.704-28.436 28.374-28.436zM236.988 668.934v-441.854h550.022v441.854h-550.022zM754.656 259.436h-485.312v377.144h485.312v-92.040h-106.606c-53.27 0-96.556-43.318-96.556-96.556 0-53.192 43.288-96.478 96.556-96.478h106.606v-92.070zM754.656 383.86h-106.606c-35.386 0-64.202 28.754-64.202 64.126 0 35.418 28.814 64.204 64.202 64.204h106.606v-128.33z" />
<glyph unicode="&#xe932;" glyph-name="question" d="M511.258 309.372h-37.992v50.442c0 64.376 44.602 103.352 83.854 137.728 30.87 26.974 57.51 50.276 57.51 79.754 0 56.582-46.042 102.628-102.626 102.628-56.586 0-102.628-46.046-102.628-102.628h-37.996c0 77.544 63.078 140.622 140.626 140.622 77.542 0 140.618-63.076 140.618-140.622 0-46.732-35.836-78.046-70.454-108.342-36.476-31.892-70.91-61.998-70.91-109.138v-50.444zM474.008 216.078h37.996v-37.992h-37.996v37.992z" />
<glyph unicode="&#xe933;" glyph-name="exclamation" d="M493.046 215.988h37.906v-37.902h-37.906v37.902zM493.046 717.914h37.906v-407.162h-37.906v407.162z" />
</font>
</defs>
</svg>
